HIERARCHY
ROOT SimulationBone
{
	OFFSET 0.000000 0.000000 0.000000
	CHANNELS 6 Xposition Yposition Zposition Zrotation Yrotation Xrotation 
	JOINT Hips
	{
		OFFSET 0.000000 0.000000 0.000000
		CHANNELS 6 Xposition Yposition Zposition Zrotation Yrotation Xrotation 
		JOINT LeftUpLeg
		{
			OFFSET 0.103459 1.857831 10.548505
			CHANNELS 3 Zrotation Yrotation Xrotation
			JOINT LeftLeg
			{
				OFFSET 43.500004 -0.000023 -0.000004
				CHANNELS 3 Zrotation Yrotation Xrotation
				JOINT LeftFoot
				{
					OFFSET 42.372204 0.000019 -0.000006
					CHANNELS 3 Zrotation Yrotation Xrotation
					JOINT LeftToe
					{
						OFFSET 17.300005 0.000001 -0.000002
						CHANNELS 3 Zrotation Yrotation Xrotation
						End Site
						{
							OFFSET 0.000000 0.000000 0.000000
						}
					}
				}
			}
		}
		JOINT RightUpLeg
		{
			OFFSET 0.103461 1.857828 -10.548505
			CHANNELS 3 Zrotation Yrotation Xrotation
			JOINT RightLeg
			{
				OFFSET 43.500046 -0.000019 0.000006
				CHANNELS 3 Zrotation Yrotation Xrotation
				JOINT RightFoot
				{
					OFFSET 42.372261 -0.000015 0.000011
					CHANNELS 3 Zrotation Yrotation Xrotation
					JOINT RightToe
					{
						OFFSET 17.299999 -0.000003 0.000002
						CHANNELS 3 Zrotation Yrotation Xrotation
						End Site
						{
							OFFSET 0.000000 0.000000 0.000000
						}
					}
				}
			}
		}
		JOINT Spine
		{
			OFFSET 6.901964 -2.603731 0.000000
			CHANNELS 3 Zrotation Yrotation Xrotation
			JOINT Spine1
			{
				OFFSET 12.588102 -0.000003 0.000000
				CHANNELS 3 Zrotation Yrotation Xrotation
				JOINT Spine2
				{
					OFFSET 12.343204 0.000002 0.000000
					CHANNELS 3 Zrotation Yrotation Xrotation
					JOINT Neck
					{
						OFFSET 25.832891 -0.000013 0.000001
						CHANNELS 3 Zrotation Yrotation Xrotation
						JOINT Head
						{
							OFFSET 11.766613 0.000015 -0.000000
							CHANNELS 3 Zrotation Yrotation Xrotation
							End Site
							{
								OFFSET 0.000000 0.000000 0.000000
							}
						}
					}
					JOINT LeftShoulder
					{
						OFFSET 19.745911 -1.480375 6.000106
						CHANNELS 3 Zrotation Yrotation Xrotation
						JOINT LeftArm
						{
							OFFSET 11.284125 -0.000012 -0.000024
							CHANNELS 3 Zrotation Yrotation Xrotation
							JOINT LeftForeArm
							{
								OFFSET 33.000050 0.000007 0.000027
								CHANNELS 3 Zrotation Yrotation Xrotation
								JOINT LeftHand
								{
									OFFSET 25.200005 0.000018 0.000002
									CHANNELS 3 Zrotation Yrotation Xrotation
									End Site
									{
										OFFSET 0.000000 0.000000 0.000000
									}
								}
							}
						}
					}
					JOINT RightShoulder
					{
						OFFSET 19.746092 -1.480375 -6.000074
						CHANNELS 3 Zrotation Yrotation Xrotation
						JOINT RightArm
						{
							OFFSET 11.284139 -0.000017 -0.000020
							CHANNELS 3 Zrotation Yrotation Xrotation
							JOINT RightForeArm
							{
								OFFSET 33.000099 0.000021 0.000012
								CHANNELS 3 Zrotation Yrotation Xrotation
								JOINT RightHand
								{
									OFFSET 25.199780 0.000137 0.000427
									CHANNELS 3 Zrotation Yrotation Xrotation
									End Site
									{
										OFFSET 0.000000 0.000000 0.000000
									}
								}
							}
						}
					}
				}
			}
		}
	}
}
MOTION
Frames: 5
Frame Time: 0.033333
118.572013 0.000000 -339.845453 0.000000 242.433311 0.000000 2.090177 90.431374 -0.441393 97.221933 -1.508150 176.585285 178.904265 4.641798 166.085079 -21.746689 -2.816946 -7.726778 88.753145 6.169171 5.267889 21.454553 0.003086 -0.000000 165.170845 2.702106 177.752873 -69.906474 0.930274 16.468710 82.684283 -10.436933 5.191674 21.454555 -0.003100 -0.000019 7.171208 -0.599342 0.105179 4.328815 -1.202218 0.188096 4.010649 -1.200918 0.195357 -0.960705 -1.142605 1.055696 -5.478260 1.436261 0.358340 -168.266928 -72.937486 -13.405605 -24.073799 55.693496 26.845729 -27.640048 -14.533502 1.156236 10.237146 -10.177843 -1.178408 160.607595 75.804486 -18.440814 8.408830 -60.451177 -33.771474 -37.837339 16.524715 -1.529167 10.647782 6.376993 -24.088783 
118.167920 0.000000 -338.311403 0.000000 243.594839 0.000000 2.009163 90.120293 -0.177279 97.758620 -1.591689 176.546207 179.810713 5.018598 167.922783 -22.754715 -3.009534 -8.115629 90.025220 6.308043 5.028047 21.454555 0.003091 0.000000 160.666362 0.777698 173.892423 -67.226615 0.459607 16.683750 83.506262 -10.616203 5.125121 21.454560 -0.003105 -0.000022 7.388787 -0.661041 0.038354 4.764762 -1.323128 0.049682 4.446575 -1.322659 0.057679 -1.157480 -0.763494 0.873734 -5.632291 1.330862 0.308793 -169.562793 -73.271715 -12.073484 -28.752122 54.423996 22.562353 -32.035769 -15.830212 1.323915 9.935202 -11.952630 0.817945 160.385628 75.531005 -18.681650 9.406765 -61.061816 -34.984919 -36.948516 16.210276 -1.486733 11.007226 6.274839 -22.391824 
117.691385 0.000000 -336.744233 0.000000 244.744891 0.000000 2.083686 89.883507 0.076822 98.523747 -1.492617 176.779481 -178.430045 5.149505 169.203320 -22.960818 -3.130156 -8.002922 91.079937 6.170208 5.095496 21.454551 0.003088 0.000000 157.284599 -0.570097 170.900677 -59.363087 0.856376 15.610303 83.220104 -9.876407 5.299432 21.454560 -0.003114 -0.000018 7.679333 -0.639107 -0.165252 5.348135 -1.269981 -0.359686 5.029958 -1.271995 -0.352007 -1.414366 -0.547158 0.806647 -5.779669 1.227477 0.327331 -171.002310 -73.836852 -10.596582 -32.384809 53.733972 17.923099 -36.454721 -16.917600 1.493343 9.362264 -13.297099 2.252955 160.411910 75.541237 -18.654234 10.185593 -61.533120 -36.445927 -36.994470 16.280214 -1.492403 11.646873 5.256348 -22.636369 
117.178286 0.000000 -335.132236 0.000000 245.938804 0.000000 2.166000 89.598282 0.275627 98.869218 -1.551427 177.670611 -177.048844 5.164593 170.494745 -23.335918 -3.427670 -7.458422 92.381771 5.775561 5.468258 21.454551 0.003085 0.000000 153.777666 -0.656093 169.310964 -49.086240 1.854108 13.756769 82.705750 -8.210575 7.420524 21.454560 -0.003104 -0.000015 7.908890 -0.604412 -0.595839 5.811536 -1.178341 -1.221200 5.493432 -1.185560 -1.214055 -2.211156 -0.213608 0.847487 -5.674721 0.824809 0.565259 -171.106197 -74.652841 -10.494510 -35.610137 53.468363 13.624769 -40.804499 -17.862948 1.666062 9.076824 -13.958502 2.342097 161.821798 75.463434 -17.218984 10.785659 -61.440652 -37.277830 -38.450683 16.105861 -1.517498 11.544203 4.369744 -24.249330 
116.639930 0.000000 -333.456093 0.000000 247.192573 0.000000 2.204392 89.466560 0.418559 98.938923 -1.349792 178.691940 -175.740904 4.893403 171.704208 -23.263414 -3.565047 -6.771155 93.462492 5.285546 5.734895 21.454551 0.003085 0.000000 150.163949 -0.828285 168.798809 -38.962462 2.555797 11.605870 82.602532 -6.781165 7.235680 21.454558 -0.003113 -0.000020 8.085242 -0.507525 -1.083511 6.167003 -0.956885 -2.192473 5.849098 -0.969965 -2.186652 -3.052257 0.302575 0.897348 -5.682514 0.351506 0.888799 -172.191200 -75.023870 -9.384483 -37.398626 52.773716 10.468831 -45.023039 -18.219263 1.809428 8.248076 -14.881124 3.994062 162.704832 75.295493 -16.325482 11.590870 -61.019141 -38.624245 -40.424417 16.008855 -1.562749 10.950291 4.468200 -24.896166 
